name C:\Users\u0101727\Documents\MyRepositories\upper-imu-dc\Results\main_tracking\Case_22\SHRUG01_orientations_groundFrame.mot
datacolumns 13
datarows 40
range 0.71000000 1.10000000
endheader 
time	radius_imu_[0][0]	radius_imu_[0][1]	radius_imu_[0][2]	radius_imu_[1][0]	radius_imu_[1][1]	radius_imu_[1][2]	radius_imu_[2][0]	radius_imu_[2][1]	radius_imu_[2][2]	radius_imu_x	radius_imu_y	radius_imu_z	
          0.71000000	          0.56527229	         -0.11651400	          0.81663439	         -0.18554760	          0.94664684	          0.26349922	         -0.80376571	         -0.30047336	          0.51349434	         -0.47411157	          0.95555534	          0.20327331	
          0.72000000	          0.55965812	         -0.11700440	          0.82042230	         -0.18660044	          0.94676894	          0.26231440	         -0.80744230	         -0.29989755	          0.50803386	         -0.47662809	          0.96214923	          0.20609562	
          0.73000000	          0.55426768	         -0.11750182	          0.82400283	         -0.18864508	          0.94648927	          0.26186084	         -0.81067896	         -0.30058508	          0.50244227	         -0.48044453	          0.96843998	          0.20890189	
          0.74000000	          0.54906336	         -0.11800090	          0.82740874	         -0.19134375	          0.94594207	          0.26188007	         -0.81358282	         -0.30210824	          0.49680339	         -0.48511546	          0.97447781	          0.21169308	
          0.75000000	          0.54419759	         -0.11848456	          0.83054825	         -0.19441478	          0.94521892	          0.26222908	         -0.81612001	         -0.30417529	          0.49135071	         -0.49023516	          0.98009134	          0.21437779	
          0.76000000	          0.54000810	         -0.11893449	          0.83321416	         -0.19760626	          0.94437832	          0.26287135	         -0.81813386	         -0.30660099	          0.48646975	         -0.49541602	          0.98489523	          0.21678470	
          0.77000000	          0.53699156	         -0.11934080	          0.83510349	         -0.20068040	          0.94345204	          0.26386670	         -0.81937015	         -0.30928309	          0.48267642	         -0.50028615	          0.98832089	          0.21868552	
          0.78000000	          0.53577407	         -0.11970811	          0.83583259	         -0.20340158	          0.94245004	          0.26535961	         -0.81949615	         -0.31218246	          0.48059147	         -0.50449402	          0.98964764	          0.21981979	
          0.79000000	          0.53710625	         -0.12004955	          0.83492813	         -0.20551989	          0.94136662	          0.26756394	         -0.81809440	         -0.31530460	          0.48094133	         -0.50769304	          0.98800218	          0.21989744	
          0.80000000	          0.54187897	         -0.12035308	          0.83179464	         -0.20675752	          0.94018949	          0.27073059	         -0.81462783	         -0.31868301	          0.48458501	         -0.50948702	          0.98233299	          0.21855556	
          0.81000000	          0.55111271	         -0.12050424	          0.82568366	         -0.20682375	          0.93891260	          0.27507647	         -0.80839268	         -0.32236913	          0.49252353	         -0.50934891	          0.97141301	          0.21526824	
          0.82000000	          0.56583278	         -0.12014383	          0.81571976	         -0.20550284	          0.93755587	          0.28063779	         -0.79849975	         -0.32642679	          0.50580995	         -0.50654278	          0.95397240	          0.20922367	
          0.83000000	          0.58668706	         -0.11846164	          0.80110245	         -0.20287373	          0.93619749	          0.28701308	         -0.78399015	         -0.33090950	          0.52522220	         -0.50012153	          0.92913490	          0.19923740	
          0.84000000	          0.61220515	         -0.11419540	          0.78240927	         -0.19988130	          0.93502658	          0.29286986	         -0.76501785	         -0.33568542	          0.54960256	         -0.48960099	          0.89852514	          0.18441194	
          0.85000000	          0.62203280	         -0.11267151	          0.77484213	         -0.19892075	          0.93438417	          0.29556176	         -0.75730161	         -0.33798128	          0.55880490	         -0.48651318	          0.88646532	          0.17919147	
          0.86000000	          0.61795238	         -0.11191403	          0.77820955	         -0.20121299	          0.93434067	          0.29414426	         -0.76003171	         -0.33835301	          0.55485948	         -0.48745528	          0.89180975	          0.17916268	
          0.87000000	          0.60738961	         -0.11239761	          0.78641251	         -0.20423681	          0.93457055	          0.29131634	         -0.76770123	         -0.33755690	          0.54469271	         -0.49111945	          0.90497953	          0.18298037	
          0.88000000	          0.59671727	         -0.11421379	          0.79428189	         -0.20621752	          0.93475054	          0.28933677	         -0.77550167	         -0.33644709	          0.53422890	         -0.49636889	          0.91782468	          0.18911622	
          0.89000000	          0.60302734	         -0.11132262	          0.78991474	         -0.20645960	          0.93469622	          0.28933960	         -0.77054036	         -0.33756518	          0.54066376	         -0.49137550	          0.91066995	          0.18255102	
          0.90000000	          0.61797141	         -0.10748614	          0.77881838	         -0.20477955	          0.93441108	          0.29144684	         -0.75906302	         -0.33959189	          0.55542837	         -0.48323095	          0.89277980	          0.17221101	
          0.91000000	          0.62476760	         -0.10697280	          0.77344830	         -0.20340636	          0.93407044	          0.29349322	         -0.75385098	         -0.34068935	          0.56181800	         -0.48140590	          0.88426340	          0.16957579	
          0.92000000	          0.61903498	         -0.10956861	          0.77768272	         -0.20406451	          0.93376903	          0.29399501	         -0.75838867	         -0.34069064	          0.55567663	         -0.48663671	          0.89097129	          0.17518466	
          0.93000000	          0.61419445	         -0.11112328	          0.78129175	         -0.20549586	          0.93335967	          0.29429776	         -0.76192954	         -0.34130827	          0.55042896	         -0.49099727	          0.89673270	          0.17898900	
          0.94000000	          0.61279323	         -0.11228345	          0.78222560	         -0.20641266	          0.93274786	          0.29559302	         -0.76280946	         -0.34259867	          0.54840485	         -0.49436268	          0.89823026	          0.18122193	
          0.95000000	          0.61540967	         -0.11256969	          0.78012756	         -0.20702569	          0.93191415	          0.29778579	         -0.76053356	         -0.34476671	          0.55020416	         -0.49608339	          0.89486968	          0.18091821	
          0.96000000	          0.61684703	         -0.11396385	          0.77878879	         -0.20761183	          0.93086088	          0.30065819	         -0.75920819	         -0.34714588	          0.55053853	         -0.49985678	          0.89273263	          0.18269216	
          0.97000000	          0.61652870	         -0.11644355	          0.77867404	         -0.20813129	          0.92971686	          0.30382219	         -0.75932452	         -0.34938154	          0.54896158	         -0.50548727	          0.89254971	          0.18667074	
          0.98000000	          0.62110153	         -0.11529114	          0.77520375	         -0.20949639	          0.92870497	          0.30597115	         -0.75521133	         -0.35244154	          0.55266699	         -0.50562329	          0.88703756	          0.18353473	
          0.99000000	          0.62077697	         -0.11363206	          0.77570852	         -0.21254838	          0.92798992	          0.30603576	         -0.75462516	         -0.35485555	          0.55192247	         -0.50628427	          0.88783701	          0.18104382	
          1.00000000	          0.60453454	         -0.11556645	          0.78815124	         -0.21806034	          0.92761740	          0.30327487	         -0.76615121	         -0.35520466	          0.53557630	         -0.51524033	          0.90779943	          0.18888708	
          1.01000000	          0.58087595	         -0.11865707	          0.80529723	         -0.22499737	          0.92736829	          0.29893852	         -0.78227828	         -0.35483596	          0.51198841	         -0.52848038	          0.93617664	          0.20150048	
          1.02000000	          0.56099715	         -0.12019196	          0.81904584	         -0.23178285	          0.92702365	          0.29479462	         -0.79470681	         -0.35521973	          0.49219918	         -0.53963501	          0.95974596	          0.21105633	
          1.03000000	          0.54615921	         -0.12106919	          0.82888622	         -0.23760307	          0.92647188	          0.29188119	         -0.80327760	         -0.35635951	          0.47723474	         -0.54891203	          0.97711378	          0.21814627	
          1.04000000	          0.53676380	         -0.12192101	          0.83487717	         -0.24206531	          0.92565402	          0.29080753	         -0.80826296	         -0.35818975	          0.46734473	         -0.55662284	          0.98790960	          0.22335123	
          1.05000000	          0.53293949	         -0.12313677	          0.83714565	         -0.24495395	          0.92453919	          0.29193296	         -0.80992164	         -0.36064473	          0.46256060	         -0.56299076	          0.99204381	          0.22706737	
          1.06000000	          0.53465910	         -0.12488808	          0.83578862	         -0.24615860	          0.92311496	          0.29540603	         -0.80842166	         -0.36367808	          0.46280954	         -0.56809810	          0.98956754	          0.22947012	
          1.07000000	          0.54160266	         -0.12709084	          0.83097201	         -0.24572915	          0.92139486	          0.30107922	         -0.80391774	         -0.36725936	          0.46779998	         -0.57186770	          0.98085264	          0.23048685	
          1.08000000	          0.55269735	         -0.12934044	          0.82328409	         -0.24406192	          0.91944980	          0.30829506	         -0.79684341	         -0.37132616	          0.47661040	         -0.57415707	          0.96717259	          0.22987996	
          1.09000000	          0.56493031	         -0.13102169	          0.81466991	         -0.24224388	          0.91747125	          0.31553829	         -0.78877858	         -0.37560594	          0.48656812	         -0.57531837	          0.95215977	          0.22789629	
          1.10000000	          0.66934605	         -0.08075637	          0.73854876	         -0.24255740	          0.91585108	          0.31997297	         -0.70224054	         -0.39331311	          0.59343325	         -0.49450553	          0.83091528	          0.12006930	
